<?xml version="1.0" standalone="no"?>
<!DOCTYPE svg PUBLIC "-//W3C//DTD SVG 20010904//EN"
 "http://www.w3.org/TR/2001/REC-SVG-20010904/DTD/svg10.dtd">
<svg version="1.0" xmlns="http://www.w3.org/2000/svg"
 width="400.000000pt" height="400.000000pt" viewBox="0 0 400.000000 400.000000"
 preserveAspectRatio="xMidYMid meet">
<metadata>
Created by potrace 1.14, written by Peter Selinger 2001-2017
</metadata>
<g transform="translate(0.000000,400.000000) scale(0.100000,-0.100000)"
fill="#000000" stroke="none">
<path d="M1904 3670 c-95 -20 -182 -80 -221 -153 -16 -28 -18 -55 -15 -212 1
-99 7 -207 13 -240 16 -94 78 -209 156 -292 80 -84 100 -95 164 -95 62 0 104
26 174 108 121 143 143 207 156 454 5 102 6 201 3 220 -21 120 -145 207 -307
215 -45 2 -100 0 -123 -5z"/>
<path d="M1183 3208 c-108 -36 -208 -143 -238 -256 l-12 -47 -12 29 c-19 48 5
122 58 180 l26 29 -40 -7 c-22 -4 -84 -28 -138 -53 -143 -68 -142 -66 -142
-318 0 -179 3 -219 32 -385 18 -102 40 -236 49 -298 l17 -113 21 20 c14 13 35
21 57 20 27 0 30 -2 14 -9 -16 -6 -10 -9 25 -12 43 -3 43 -4 15 -11 -71 -18
-171 -52 -186 -64 -8 -7 -22 -13 -31 -13 -17 0 -75 -28 -83 -39 -9 -15 25 -17
320 -16 239 0 290 2 290 14 0 13 -59 32 -192 63 -35 8 -52 17 -52 27 0 9 -3
75 -7 146 -7 132 -5 147 36 383 12 68 20 125 18 127 -2 2 -36 11 -77 19 -129
27 -197 85 -208 179 l-5 42 22 -35 c67 -107 143 -146 262 -134 58 6 76 3 133
-20 37 -15 94 -29 127 -33 53 -5 74 -14 149 -65 48 -32 104 -65 123 -73 55
-23 212 -20 299 7 58 17 78 19 110 11 25 -7 51 -7 77 -1 32 8 53 6 109 -11 80
-24 233 -28 292 -7 20 7 65 32 100 56 35 24 75 51 89 60 14 9 54 20 89 23 35
4 90 19 122 33 53 24 67 26 133 21 126 -11 193 22 268 133 l17 25 0 -30 c1
-41 -37 -105 -79 -132 -34 -23 -101 -46 -173 -58 l-38 -6 7 -47 c3 -26 15 -92
25 -147 28 -145 32 -216 24 -357 l-7 -124 -51 -12 c-143 -33 -192 -49 -192
-63 0 -12 43 -14 265 -17 268 -2 355 2 345 18 -8 12 -65 40 -83 40 -9 0 -23 6
-31 14 -21 18 -138 56 -172 56 -15 0 -31 5 -34 10 -4 6 11 10 37 10 31 0 39 3
28 10 -12 8 -9 10 11 10 15 0 38 -9 51 -20 l25 -19 17 112 c10 62 32 195 49
297 29 166 32 206 32 385 0 241 -3 249 -105 300 -36 18 -78 39 -95 48 -16 8
-50 18 -75 22 l-44 7 33 -38 c46 -52 64 -98 56 -145 -7 -42 -25 -63 -25 -30 0
46 -51 134 -113 195 -53 52 -75 66 -133 84 -62 20 -87 22 -236 20 l-166 -3 -6
-29 c-3 -16 -6 -45 -6 -65 -1 -123 -78 -298 -181 -406 -160 -168 -282 -167
-440 3 -110 120 -165 251 -184 442 l-6 55 -172 2 c-151 2 -180 0 -234 -19z"/>
<path d="M1580 2429 c0 -13 69 -56 120 -74 207 -74 539 -54 683 41 45 30 49
49 6 27 -26 -13 -57 -15 -173 -10 -104 4 -135 3 -116 -5 22 -10 23 -12 6 -15
-10 -3 -38 0 -62 6 -33 9 -55 9 -82 0 -21 -6 -49 -9 -62 -7 l-25 5 25 10 c18
8 -13 9 -116 5 -116 -4 -147 -2 -173 11 -17 8 -31 11 -31 6z"/>
<path d="M1614 2328 c10 -53 56 -132 121 -208 l60 -70 58 3 c31 2 57 2 57 0 0
-2 -15 -9 -32 -17 l-33 -14 32 -1 c17 -1 38 6 47 14 21 21 29 19 16 -5 -17
-32 -47 -43 -82 -31 l-30 11 7 -33 c4 -17 8 -42 7 -54 0 -18 5 -21 42 -20 22
1 43 -2 44 -8 2 -5 8 -16 14 -22 14 -17 3 -16 -32 2 -38 19 -83 3 -78 -29 2
-17 11 -22 48 -24 25 -2 57 1 70 6 24 9 25 12 27 123 1 81 -2 118 -11 129 -22
25 -28 77 -10 84 20 8 68 8 88 0 18 -7 12 -59 -10 -84 -9 -11 -12 -48 -11
-129 2 -131 2 -130 95 -123 41 3 52 8 52 21 0 10 -11 23 -25 29 -21 10 -32 9
-55 -3 -29 -15 -30 -15 -26 7 3 20 9 23 47 22 38 -2 44 1 45 20 0 11 4 34 9
50 8 29 7 29 -24 23 -37 -8 -66 4 -82 35 -11 20 -10 20 12 4 13 -9 37 -16 54
-16 l30 1 -33 18 -34 17 61 -4 c51 -4 61 -2 61 12 0 9 4 16 10 16 17 0 120
132 145 187 22 45 33 93 21 93 -2 0 -29 -12 -60 -26 -158 -72 -494 -72 -652 0
-31 14 -59 26 -61 26 -3 0 -3 -15 1 -32z"/>
<path d="M710 1625 l0 -45 220 0 220 0 0 -245 0 -245 -220 0 -220 0 0 -45 0
-45 570 0 570 0 0 45 0 45 -240 0 -240 0 0 245 0 245 238 2 237 3 3 43 3 42
-570 0 -571 0 0 -45z"/>
<path d="M2053 1662 l-23 -3 0 -330 0 -329 563 0 c336 0 588 4 627 10 75 12
166 53 174 78 8 26 9 145 2 170 -8 24 -91 67 -151 78 l-40 8 64 13 c112 23
136 52 129 162 -4 56 -8 67 -35 91 -57 51 -89 54 -713 55 -316 1 -585 -1 -597
-3z m1090 -105 c24 -15 27 -24 27 -71 0 -96 26 -91 -481 -94 l-439 -3 0 96 0
96 433 -3 c395 -3 435 -5 460 -21z m-1 -266 c14 -8 29 -23 32 -35 9 -34 7
-106 -4 -126 -20 -37 -60 -40 -496 -40 l-424 0 0 110 0 110 433 -3 c331 -3
438 -6 459 -16z"/>
<path d="M620 700 c0 -89 0 -90 25 -90 22 0 25 4 25 35 l0 35 84 0 c108 0 116
3 116 49 0 56 -10 61 -137 61 l-113 0 0 -90z m198 33 c3 -22 0 -23 -72 -23
-75 0 -76 0 -76 25 0 26 1 26 73 23 66 -3 72 -5 75 -25z"/>
<path d="M957 783 c-3 -5 -4 -44 -3 -88 l1 -80 118 -3 c100 -2 117 0 117 13 0
12 -16 15 -82 16 -46 1 -86 1 -90 0 -5 0 -8 10 -8 24 0 24 3 25 56 25 73 0 70
24 -4 28 -44 3 -52 6 -52 23 0 17 7 19 90 19 73 0 90 3 90 15 0 12 -19 15
-114 15 -63 0 -117 -3 -119 -7z"/>
<path d="M1297 783 c-2 -5 -3 -44 -2 -88 0 -78 1 -80 25 -80 21 0 26 5 28 33
3 26 7 32 28 32 13 0 46 -16 74 -36 37 -27 57 -35 82 -32 l33 3 -50 30 c-50
30 -50 30 -20 33 17 2 36 11 43 20 15 20 16 64 0 80 -13 13 -234 17 -241 5z
m193 -48 c0 -24 -2 -25 -70 -25 -68 0 -70 1 -70 25 0 24 2 25 70 25 68 0 70
-1 70 -25z"/>
<path d="M1671 776 c-7 -8 -11 -30 -9 -48 l3 -33 98 -3 c96 -3 97 -3 97 -28 0
-25 0 -25 -80 -22 -44 2 -80 6 -80 11 0 4 -11 7 -25 7 -30 0 -34 -25 -6 -40
11 -5 61 -10 111 -10 109 0 130 9 130 53 0 51 -13 57 -118 57 -84 0 -93 2 -90
18 3 14 16 17 81 20 48 2 77 -1 77 -8 0 -12 37 -13 45 -1 3 5 -2 17 -11 25
-21 22 -206 23 -223 2z"/>
<path d="M2031 781 c-10 -6 -16 -32 -19 -74 -6 -93 1 -97 147 -97 78 0 121 4
129 12 7 7 12 40 12 80 0 56 -3 69 -19 78 -24 12 -231 13 -250 1z m217 -78
l-3 -58 -87 -3 -88 -3 0 61 0 60 90 0 91 0 -3 -57z"/>
<path d="M2416 723 c-8 -88 -4 -107 22 -111 21 -3 22 1 22 57 0 34 2 61 4 61
3 0 47 -27 99 -60 51 -33 101 -60 110 -60 15 0 17 12 17 90 0 89 0 90 -25 90
-22 0 -24 -4 -27 -59 l-3 -58 -93 58 c-51 33 -99 59 -106 59 -10 0 -16 -21
-20 -67z"/>
<path d="M2832 705 c-34 -46 -62 -87 -62 -90 0 -14 47 -2 58 15 10 17 23 20
90 20 66 0 79 -3 90 -20 12 -20 67 -29 60 -10 -2 6 -30 46 -62 90 -81 108 -92
108 -174 -5z m111 16 c9 -16 17 -32 17 -35 0 -3 -20 -6 -45 -6 -25 0 -45 2
-45 5 0 9 43 65 50 65 3 0 13 -13 23 -29z"/>
<path d="M3154 777 c-3 -8 -4 -47 -2 -88 l3 -74 113 -3 c101 -2 113 -1 110 14
-2 13 -18 16 -85 17 l-83 0 0 74 c0 71 -1 73 -25 73 -14 0 -28 -6 -31 -13z"/>
<path d="M870 476 c0 -11 15 -16 53 -18 l52 -3 3 -73 c3 -69 4 -73 25 -70 20
3 22 9 25 76 l3 72 49 0 c38 0 50 4 50 15 0 13 -21 15 -130 15 -107 0 -130 -3
-130 -14z"/>
<path d="M1202 403 c3 -83 4 -88 26 -91 19 -3 22 1 22 32 0 33 2 36 29 36 17
0 51 -15 81 -35 30 -20 64 -35 81 -35 16 0 29 2 29 5 0 2 -21 16 -47 32 -25
15 -42 28 -37 29 5 1 21 5 35 8 30 7 43 45 28 83 -8 22 -12 23 -129 23 l-121
0 3 -87z m198 32 c0 -24 -2 -25 -75 -25 -73 0 -75 1 -75 25 0 24 2 25 75 25
73 0 75 -1 75 -25z"/>
<path d="M1572 405 c-34 -46 -62 -87 -62 -90 0 -13 39 -3 55 15 15 17 31 20
96 20 68 0 80 -3 89 -20 10 -19 60 -29 60 -12 0 4 -28 44 -61 90 -82 112 -94
112 -177 -3z m116 12 l22 -32 -46 -3 c-25 -2 -48 -1 -51 2 -6 6 35 66 45 66 4
0 17 -15 30 -33z"/>
<path d="M1900 399 c0 -88 1 -90 23 -87 21 3 22 8 25 91 l3 87 -26 0 c-25 0
-25 0 -25 -91z"/>
<path d="M2070 399 c0 -88 1 -90 23 -87 20 3 22 8 22 61 0 31 1 57 4 57 2 0
44 -25 93 -56 49 -31 97 -57 106 -58 15 -1 17 11 20 87 l3 87 -26 0 c-24 0
-25 -2 -25 -60 l0 -59 -93 59 c-51 33 -101 60 -110 60 -15 0 -17 -12 -17 -91z"/>
<path d="M2462 403 l3 -88 115 0 c101 0 115 2 118 18 3 15 -6 17 -92 17 -89 0
-96 1 -96 20 0 18 7 20 55 20 42 0 55 3 55 15 0 12 -13 15 -55 15 -48 0 -55 2
-55 20 0 19 7 20 95 20 78 0 95 3 95 15 0 13 -20 15 -120 15 l-121 0 3 -87z"/>
<path d="M2800 400 c0 -89 0 -90 25 -90 22 0 25 4 25 35 0 31 3 35 27 35 15 0
51 -16 80 -36 39 -27 60 -35 85 -32 l33 3 -49 29 c-27 17 -45 31 -40 32 5 1
22 5 37 8 26 6 28 9 25 54 l-3 47 -122 3 -123 3 0 -91z m200 35 c0 -24 -2 -25
-75 -25 -73 0 -75 1 -75 25 0 24 2 25 75 25 73 0 75 -1 75 -25z"/>
</g>
</svg>
